<svg xmlns="http://www.w3.org/2000/svg" width="148" height="91" viewBox="0 0 148 91"><title>cc-cvv</title><g id="Layer_2" data-name="Layer 2"><g id="Layer_1-2" data-name="Layer 1"><rect x="0.5" y="0.5" width="147" height="90" rx="2" ry="2" style="fill:#fff;stroke:#999;stroke-miterlimit:10"/><rect x="0.5" y="11.5" width="147" height="12" style="fill:#999;stroke:#999;stroke-miterlimit:10"/><rect x="11.5" y="41.5" width="50" height="21" style="fill:#999;stroke:#999;stroke-miterlimit:10"/><rect x="80.5" y="41.5" width="52" height="21" style="fill:none;stroke:#d12b30;stroke-miterlimit:10"/><path d="M95,57.38h-2.2V49.1A7.56,7.56,0,0,1,90,50.77v-2a6.34,6.34,0,0,0,1.87-1.07,4.05,4.05,0,0,0,1.38-1.83H95Z" style="fill:#d12b30"/><path d="M105.74,55.34v2H98a5.29,5.29,0,0,1,.75-2.19,14.59,14.59,0,0,1,2.47-2.75,15.53,15.53,0,0,0,1.82-1.87,2.42,2.42,0,0,0,.45-1.34,1.53,1.53,0,0,0-.39-1.13,1.68,1.68,0,0,0-2.18,0,2.13,2.13,0,0,0-.47,1.38l-2.19-.22a3.59,3.59,0,0,1,1.23-2.6,4.12,4.12,0,0,1,2.58-.79,3.73,3.73,0,0,1,2.66.91,3,3,0,0,1,1,2.27,4,4,0,0,1-.28,1.47,6,6,0,0,1-.88,1.46,14,14,0,0,1-1.44,1.46q-1,1-1.32,1.27a3.8,3.8,0,0,0-.45.61Z" style="fill:#d12b30"/><path d="M107.15,54.34l2.13-.26a2,2,0,0,0,.55,1.24,1.55,1.55,0,0,0,2.22-.09,2,2,0,0,0,.46-1.39,1.87,1.87,0,0,0-.45-1.31A1.42,1.42,0,0,0,111,52a3.83,3.83,0,0,0-1,.16l.24-1.79a1.92,1.92,0,0,0,1.36-.39,1.38,1.38,0,0,0,.47-1.09,1.18,1.18,0,0,0-1.26-1.27,1.32,1.32,0,0,0-1,.39,1.84,1.84,0,0,0-.48,1.14l-2-.34a4.52,4.52,0,0,1,.64-1.66,2.88,2.88,0,0,1,1.19-1,4,4,0,0,1,1.71-.36,3.41,3.41,0,0,1,2.59,1,2.61,2.61,0,0,1-.84,4.31,2.67,2.67,0,0,1,1.57.95,2.74,2.74,0,0,1,.59,1.77,3.44,3.44,0,0,1-1.1,2.57,4.11,4.11,0,0,1-5.32.17A3.51,3.51,0,0,1,107.15,54.34Z" style="fill:#d12b30"/><path d="M120.43,57.38v-2.3h-4.69V53.15l5-7.27h1.84v7.27H124v1.93h-1.42v2.3Zm0-4.23V49.23l-2.63,3.91Z" style="fill:#d12b30"/></g></g></svg>