<svg xmlns="http://www.w3.org/2000/svg" xmlns:xlink="http://www.w3.org/1999/xlink" width="151" height="95" viewBox="0 0 151 95"><defs><linearGradient id="linear-gradient" x1="75.5" y1="0.5" x2="75.5" y2="94.5" gradientUnits="userSpaceOnUse"><stop offset="0.6" stop-color="#fff"/><stop offset="1" stop-color="#e8e9e9"/></linearGradient><radialGradient id="radial-gradient" cx="74.1" cy="-451.27" r="10.83" gradientTransform="translate(6.42 486.08)" gradientUnits="userSpaceOnUse"><stop offset="0.01" stop-color="#ffeee0"/><stop offset="0.11" stop-color="#fee9d7"/><stop offset="0.28" stop-color="#fddbbf"/><stop offset="0.49" stop-color="#fbc597"/><stop offset="0.74" stop-color="#f8a560"/><stop offset="1" stop-color="#f48120"/></radialGradient></defs><title>cc-discover</title><g id="Layer_2" data-name="Layer 2"><g id="Discover"><rect x="0.5" y="0.5" width="150" height="94" rx="3" ry="3" style="stroke:#e0e0e0;stroke-miterlimit:10;fill:url(#linear-gradient)"/><path d="M150.19,52.77S109.91,81.2,36.12,93.93H150.19Z" style="fill:#f58220"/><path d="M136,82.27" style="fill:#e73530"/><path d="M80.53,24.11a10.77,10.77,0,0,0-11,10.56,11,11,0,1,0,11-10.56Z" style="fill:url(#radial-gradient)"/><path d="M18.29,24.5H12.4V45.06h5.86a10.72,10.72,0,0,0,7.33-2.37,10.34,10.34,0,0,0,3.73-7.9C29.33,28.72,24.79,24.5,18.29,24.5ZM23,39.94c-1.27,1.14-2.9,1.64-5.49,1.64H16.41V28h1.08c2.59,0,4.16.46,5.49,1.66a6.9,6.9,0,0,1,2.21,5.11A7,7,0,0,1,23,39.94Z" style="fill:#001722"/><rect x="31.18" y="24.5" width="4.01" height="20.56" style="fill:#001722"/><path d="M45,32.38c-2.41-.89-3.12-1.48-3.12-2.59,0-1.3,1.26-2.28,3-2.28a4.17,4.17,0,0,1,3.24,1.66l2.09-2.74a9,9,0,0,0-6-2.28c-3.63,0-6.41,2.53-6.41,5.89,0,2.84,1.29,4.29,5.06,5.65a15.41,15.41,0,0,1,2.77,1.17A2.46,2.46,0,0,1,46.78,39a2.93,2.93,0,0,1-3.12,2.9,4.74,4.74,0,0,1-4.38-2.74l-2.59,2.5a8,8,0,0,0,7.12,3.91c4.16,0,7.09-2.78,7.09-6.75C50.9,35.53,49.55,34.05,45,32.38Z" style="fill:#001722"/><path d="M52.17,34.79A10.65,10.65,0,0,0,63,45.52a11.06,11.06,0,0,0,5-1.2V39.6a6.42,6.42,0,0,1-4.84,2.25,6.72,6.72,0,0,1-6.91-7.09A6.83,6.83,0,0,1,63,27.7,6.71,6.71,0,0,1,68,30V25.29A10.25,10.25,0,0,0,63.11,24,10.81,10.81,0,0,0,52.17,34.79Z" style="fill:#001722"/><polygon points="100.53 38.31 95.05 24.5 90.67 24.5 99.4 45.58 101.55 45.58 110.43 24.5 106.09 24.5 100.53 38.31" style="fill:#001722"/><polygon points="112.25 45.06 123.63 45.06 123.63 41.58 116.26 41.58 116.26 36.02 123.35 36.02 123.35 32.54 116.26 32.54 116.26 27.98 123.63 27.98 123.63 24.5 112.25 24.5 112.25 45.06" style="fill:#001722"/><path d="M139.5,30.57c0-3.85-2.65-6.07-7.27-6.07h-6V45.06h4V36.79h.52l5.55,8.26h4.93l-6.48-8.66A5.47,5.47,0,0,0,139.5,30.57Zm-8,3.39h-1.17V27.73h1.23c2.5,0,3.86,1.05,3.86,3.05S134,34,131.45,34Z" style="fill:#001722"/><path d="M142.33,26c0-.36-.24-.56-.68-.56h-.58v1.81h.43v-.7l.51.7h.54l-.6-.75A.5.5,0,0,0,142.33,26Zm-.76.25h-.08v-.47h.08c.21,0,.32.08.32.23S141.79,26.28,141.57,26.28Z" style="fill:#231f20"/><path d="M141.73,24.79a1.58,1.58,0,1,0,1.56,1.58A1.58,1.58,0,0,0,141.73,24.79Zm0,2.88A1.3,1.3,0,1,1,143,26.38,1.28,1.28,0,0,1,141.73,27.67Z" style="fill:#231f20"/><path d="M48.34,50.46l5.36,5.62V50.75h.77v7.19L49.1,52.33v5.3h-.77Z" style="fill:#231f20"/><path d="M48.26,50.46V57.7h.91V52.51l5.36,5.61V50.68h-.91V55.9l-5.36-5.62Zm.14.18,5.37,5.62V50.82h.62v6.94L49,52.15v5.41h-.63Z" style="fill:#231f20"/><path d="M58.18,50.75h3.56v.71h-2.8v2h2.72v.71H58.95v2.7h2.8v.71H58.18Z" style="fill:#231f20"/><path d="M61.74,50.68H58.11v7h3.71v-.86H59V54.29h2.72v-.85H59v-1.9h2.8v-.86Zm-.07.14v.57h-2.8v2.19h2.72v.57H58.87V57h2.8v.57H58.25V50.82Z" style="fill:#231f20"/><path d="M67.16,57.63h-.77V51.46H64.73v-.71h4.1v.71H67.16Z" style="fill:#231f20"/><path d="M68.83,50.68H64.65v.86h1.66V57.7h.91V51.54h1.68v-.86Zm-.07.14v.57H67.08v6.17h-.62V51.39H64.8v-.57Z" style="fill:#231f20"/><path d="M74,55.91l2.23-5.51,2.23,5.51,1.81-5.15h.83L78.41,58l-2.23-5.54L74,58l-2.63-7.23h.83Z" style="fill:#231f20"/><path d="M76.12,50.37,74,55.7l-1.76-5h-1L74,58.19l2.23-5.55,2.23,5.55,2.74-7.51h-1l-1.76,5-2.22-5.5ZM74,55.93l2.16-5.34,2.23,5.52,1.85-5.29h.68l-2.54,7-2.22-5.53L74,57.79l-2.53-7h.68L74,56.11Z" style="fill:#231f20"/><path d="M91,54.2a3.58,3.58,0,1,1-3.58-3.56A3.57,3.57,0,0,1,91,54.2Zm-6.41,0a2.82,2.82,0,1,0,2.82-2.85A2.84,2.84,0,0,0,84.55,54.19Z" style="fill:#231f20"/><path d="M83.71,54.2a3.66,3.66,0,1,0,3.66-3.64A3.64,3.64,0,0,0,83.71,54.2Zm.14,0a3.52,3.52,0,1,1,3.52,3.48A3.51,3.51,0,0,1,83.85,54.2Z" style="fill:#231f20"/><path d="M84.48,54.19a2.89,2.89,0,1,0,2.89-2.92A2.91,2.91,0,0,0,84.48,54.19Zm.15,0A2.75,2.75,0,1,1,87.37,57,2.76,2.76,0,0,1,84.62,54.19Z" style="fill:#231f20"/><path d="M95,57.63h-.76V50.75h1c1.3,0,2.51.35,2.51,1.9a1.79,1.79,0,0,1-1.72,1.9l2.19,3.08h-.94l-2.08-3H95Zm0-3.69h.24c.86,0,1.74-.16,1.74-1.23s-.83-1.24-1.75-1.24H95Z" style="fill:#231f20"/><path d="M94.28,50.68h-.07v7h.91v-3h.12c0,.05,2,3,2,3l1,0h.14l-2.21-3.11a1.86,1.86,0,0,0,1.67-1.94c0-1.33-.85-2-2.59-2Zm1,.14c1.67,0,2.44.58,2.44,1.83a1.73,1.73,0,0,1-1.66,1.83h-.13l2.19,3.07h-.8c0-.05-2-3-2-3l-.25,0H95v3h-.62V50.82Z" style="fill:#231f20"/><path d="M95,51.39H95V54h.31c.85,0,1.81-.15,1.81-1.3s-.94-1.31-1.82-1.31Zm.23.15c.88,0,1.68.08,1.68,1.16s-.84,1.16-1.67,1.16h-.16V51.54Z" style="fill:#231f20"/><path d="M105.2,50.75h1L103,54l3.34,3.67h-1.06l-2.82-3.16-.19.19v3h-.77V50.75h.77V53.7Z" style="fill:#231f20"/><path d="M106.23,50.68h-1.06l-2.83,2.85V50.68h-.91v7h.91v-3a.56.56,0,0,0,.11-.1l2.77,3.1,1.11,0h.16L103.09,54l3.31-3.28Zm-.17.14L102.9,54l3.28,3.6h-.9s-2.77-3.13-2.77-3.13l0-.06-.25.25s0,2.81,0,2.94h-.62V50.82h.62v3.05l3-3.05Z" style="fill:#231f20"/><rect x="0.5" y="0.5" width="150" height="94" rx="3" ry="3" style="fill:none;stroke:#e0e0e0;stroke-miterlimit:10"/></g></g></svg>