<svg xmlns="http://www.w3.org/2000/svg" xmlns:xlink="http://www.w3.org/1999/xlink" width="151" height="95" viewBox="0 0 151 95"><defs><linearGradient id="linear-gradient" x1="75.5" y1="0.5" x2="75.5" y2="94.5" gradientUnits="userSpaceOnUse"><stop offset="0.6" stop-color="#fff"/><stop offset="1" stop-color="#e8e9e9"/></linearGradient></defs><title>cc-master</title><g id="Layer_2" data-name="Layer 2"><g id="MasterCard"><rect x="0.5" y="0.5" width="150" height="94" rx="3" ry="3" style="stroke:#e0e0e0;stroke-miterlimit:10;fill:url(#linear-gradient)"/><g id="Layer_1-2" data-name="Layer 1"><g id="_Group_" data-name="&lt;Group&gt;"><path id="_Compound_Path_" data-name="&lt;Compound Path&gt;" d="M45.63,78.65v-4.1a2.43,2.43,0,0,0-2.57-2.6,2.54,2.54,0,0,0-2.3,1.16,2.4,2.4,0,0,0-2.16-1.16,2.16,2.16,0,0,0-1.92,1v-.81H35.26v6.54H36.7V75a1.53,1.53,0,0,1,1.6-1.74c.94,0,1.42.62,1.42,1.72v3.64h1.44V75a1.54,1.54,0,0,1,1.6-1.74c1,0,1.44.62,1.44,1.72v3.64ZM66.9,72.11H64.57v-2H63.13v2H61.81v1.3h1.33v3c0,1.52.59,2.42,2.27,2.42a3.33,3.33,0,0,0,1.78-.51l-.41-1.22a2.63,2.63,0,0,1-1.26.37c-.71,0-.94-.44-.94-1.09v-3H66.9ZM79,71.94a1.93,1.93,0,0,0-1.72,1v-.79H75.9v6.54h1.42V75c0-1.08.47-1.68,1.4-1.68a2.33,2.33,0,0,1,.89.16L80,72.12a3.06,3.06,0,0,0-1-.18m-18.35.68A4.88,4.88,0,0,0,58,71.94c-1.66,0-2.72.79-2.72,2.09,0,1.07.79,1.72,2.26,1.93l.67.1c.78.11,1.15.31,1.15.68s-.52.79-1.49.79a3.49,3.49,0,0,1-2.18-.68L55,78a4.72,4.72,0,0,0,2.83.85c1.89,0,3-.89,3-2.13s-.86-1.75-2.29-2l-.67-.1c-.61-.08-1.11-.2-1.11-.64s.46-.77,1.25-.77a4.21,4.21,0,0,1,2,.56Zm38.12-.68a1.93,1.93,0,0,0-1.72,1v-.79H95.67v6.54h1.42V75c0-1.08.47-1.68,1.4-1.68a2.34,2.34,0,0,1,.89.16l.44-1.34a3,3,0,0,0-1-.18M80.47,75.38A3.3,3.3,0,0,0,84,78.81,3.42,3.42,0,0,0,86.31,78l-.68-1.15a2.87,2.87,0,0,1-1.71.59,2.1,2.1,0,0,1,0-4.19,2.87,2.87,0,0,1,1.71.59l.68-1.15A3.43,3.43,0,0,0,84,71.94a3.3,3.3,0,0,0-3.49,3.43m13.33,0V72.11H92.37v.79a2.48,2.48,0,0,0-2.06-1,3.44,3.44,0,0,0,0,6.87,2.48,2.48,0,0,0,2.06-1v.79H93.8Zm-5.3,0a2,2,0,1,1,2,2.09,2,2,0,0,1-2-2.09M71.33,71.94a3.44,3.44,0,0,0,.1,6.87,4,4,0,0,0,2.68-.92l-.7-1.05a3.12,3.12,0,0,1-1.9.68,1.82,1.82,0,0,1-2-1.6h4.86c0-.18,0-.36,0-.55a3.14,3.14,0,0,0-3.11-3.43m0,1.27A1.62,1.62,0,0,1,73,74.8H69.57a1.68,1.68,0,0,1,1.74-1.59M107,75.38v-5.9h-1.42V72.9a2.48,2.48,0,0,0-2.06-1,3.44,3.44,0,0,0,0,6.87,2.48,2.48,0,0,0,2.06-1v.79H107Zm-5.3,0a2,2,0,1,1,2,2.09,2,2,0,0,1-2-2.09m-48.05,0V72.11H52.23v.79a2.48,2.48,0,0,0-2.07-1,3.44,3.44,0,0,0,0,6.87,2.49,2.49,0,0,0,2.07-1v.79h1.42Zm-5.29,0a2,2,0,1,1,2,2.09,2,2,0,0,1-2-2.09m61,2.32a.64.64,0,0,1,.26.05.67.67,0,0,1,.21.14.69.69,0,0,1,.14.21.65.65,0,0,1,.05.25.63.63,0,0,1-.05.25.67.67,0,0,1-.14.21.7.7,0,0,1-.21.14.64.64,0,0,1-.26.05.66.66,0,0,1-.26-.05.67.67,0,0,1-.21-.14.65.65,0,0,1-.14-.21.63.63,0,0,1-.05-.25.65.65,0,0,1,.05-.25.67.67,0,0,1,.14-.21.64.64,0,0,1,.21-.14.66.66,0,0,1,.26-.05m0,1.16a.47.47,0,0,0,.2,0,.5.5,0,0,0,.16-.11.51.51,0,0,0,0-.72.52.52,0,0,0-.16-.11.5.5,0,0,0-.2,0,.52.52,0,0,0-.2,0,.51.51,0,0,0-.16.82.49.49,0,0,0,.16.11.5.5,0,0,0,.2,0m0-.81a.28.28,0,0,1,.18.05.18.18,0,0,1,.06.14.17.17,0,0,1,0,.12.25.25,0,0,1-.14.06l.2.23h-.15l-.18-.23h-.06v.23h-.13V78Zm-.15.11v.16h.15l.08,0a.07.07,0,0,0,0-.06.07.07,0,0,0,0-.06l-.08,0Z" style="fill:#010101"/><rect id="_Path_" data-name="&lt;Path&gt;" x="60.21" y="22.27" width="21.55" height="38.73" style="fill:#f16522"/><path id="_Path_2" data-name="&lt;Path&gt;" d="M61.58,41.63A24.59,24.59,0,0,1,71,22.27,24.63,24.63,0,1,0,71,61a24.59,24.59,0,0,1-9.41-19.36" style="fill:#e41b24"/><path id="_Compound_Path_2" data-name="&lt;Compound Path&gt;" d="M110.84,41.63A24.63,24.63,0,0,1,71,61a24.64,24.64,0,0,0,0-38.73,24.63,24.63,0,0,1,39.85,19.36m-2.35,15.26V56.1h.32v-.16H108v.16h.32v.79Zm1.58,0v-1h-.25l-.29.66-.29-.66H109v1h.18v-.72l.27.62h.18l.27-.62v.72Z" style="fill:#f89e1c"/></g></g></g></g></svg>