<svg xmlns="http://www.w3.org/2000/svg" xmlns:xlink="http://www.w3.org/1999/xlink" width="151" height="95" viewBox="0 0 151 95"><defs><linearGradient id="linear-gradient" x1="75.5" y1="0.5" x2="75.5" y2="94.5" gradientUnits="userSpaceOnUse"><stop offset="0.6" stop-color="#fff"/><stop offset="1" stop-color="#e8e9e9"/></linearGradient></defs><title>cc-paypal</title><g id="Layer_2" data-name="Layer 2"><g id="PayPal"><rect x="0.5" y="0.5" width="150" height="94" rx="3" ry="3" style="stroke:#e0e0e0;stroke-miterlimit:10;fill:url(#linear-gradient)"/><path d="M62.37,37.16H56.13a.87.87,0,0,0-.86.73l-2.52,16a.52.52,0,0,0,.51.6h3a.87.87,0,0,0,.86-.73l.68-4.32a.87.87,0,0,1,.86-.73h2c4.11,0,6.49-2,7.11-5.93a4.81,4.81,0,0,0-.8-4C66,37.71,64.46,37.16,62.37,37.16ZM63.09,43c-.34,2.24-2.05,2.24-3.71,2.24h-.94l.66-4.18a.52.52,0,0,1,.51-.44H60c1.13,0,2.19,0,2.74.64A2.08,2.08,0,0,1,63.09,43Z" style="fill:#253b80"/><path d="M81,42.93H78a.52.52,0,0,0-.51.44l-.13.84-.21-.3c-.65-.94-2.09-1.25-3.53-1.25a6.87,6.87,0,0,0-6.67,6,5.64,5.64,0,0,0,1.11,4.59,4.68,4.68,0,0,0,3.77,1.52A5.72,5.72,0,0,0,76,53.07l-.13.83a.52.52,0,0,0,.51.6h2.69a.87.87,0,0,0,.86-.73l1.62-10.23A.52.52,0,0,0,81,42.93Zm-4.17,5.82a3.33,3.33,0,0,1-3.37,2.85A2.32,2.32,0,0,1,71,48.7a3.35,3.35,0,0,1,3.35-2.88,2.52,2.52,0,0,1,2,.81A2.59,2.59,0,0,1,76.87,48.75Z" style="fill:#253b80"/><path d="M97,42.93h-3a.87.87,0,0,0-.72.38l-4.14,6.1-1.76-5.86a.87.87,0,0,0-.83-.62h-3a.52.52,0,0,0-.49.69l3.31,9.71-3.11,4.39a.52.52,0,0,0,.42.82h3a.87.87,0,0,0,.71-.37l10-14.42A.52.52,0,0,0,97,42.93Z" style="fill:#253b80"/><path d="M106.9,37.16h-6.24a.87.87,0,0,0-.86.73l-2.52,16a.52.52,0,0,0,.51.6H101a.61.61,0,0,0,.6-.51l.72-4.54a.87.87,0,0,1,.86-.73h2c4.11,0,6.49-2,7.11-5.93a4.81,4.81,0,0,0-.8-4C110.56,37.71,109,37.16,106.9,37.16Zm.72,5.85c-.34,2.24-2.05,2.24-3.71,2.24H103l.66-4.18a.52.52,0,0,1,.51-.44h.43c1.13,0,2.19,0,2.74.64A2.08,2.08,0,0,1,107.62,43Z" style="fill:#179bd7"/><path d="M125.56,42.93h-3a.52.52,0,0,0-.51.44l-.13.84-.21-.3c-.65-.94-2.09-1.25-3.53-1.25a6.87,6.87,0,0,0-6.67,6,5.65,5.65,0,0,0,1.11,4.59,4.68,4.68,0,0,0,3.77,1.52,5.72,5.72,0,0,0,4.14-1.71l-.13.83a.52.52,0,0,0,.51.6h2.69a.87.87,0,0,0,.86-.73l1.62-10.23A.52.52,0,0,0,125.56,42.93Zm-4.17,5.82A3.33,3.33,0,0,1,118,51.61a2.32,2.32,0,0,1-2.48-2.91,3.35,3.35,0,0,1,3.35-2.88,2.52,2.52,0,0,1,2,.81A2.57,2.57,0,0,1,121.39,48.75Z" style="fill:#179bd7"/><path d="M129.08,37.6l-2.56,16.3a.52.52,0,0,0,.51.6h2.58a.87.87,0,0,0,.86-.73l2.53-16a.52.52,0,0,0-.51-.6H129.6A.52.52,0,0,0,129.08,37.6Z" style="fill:#179bd7"/><path d="M26.82,57.61l.48-3-1.06,0H21.16l3.53-22.38a.3.3,0,0,1,.1-.18.29.29,0,0,1,.19-.07h8.56c2.84,0,4.8.59,5.83,1.76a4,4,0,0,1,.93,1.75,6.32,6.32,0,0,1,0,2.41v.69l.48.27a3.37,3.37,0,0,1,1,.74,3.45,3.45,0,0,1,.79,1.77,7.48,7.48,0,0,1-.11,2.57,9,9,0,0,1-1.05,2.91,6,6,0,0,1-1.67,1.83,6.76,6.76,0,0,1-2.24,1,11.19,11.19,0,0,1-2.8.32H34a2,2,0,0,0-2,1.69l-.05.27-.84,5.34,0,.2a.17.17,0,0,1-.05.11.14.14,0,0,1-.09,0Z" style="fill:#253b80"/><path d="M41.23,38h0q0,.25-.09.5c-1.13,5.8-5,7.8-9.93,7.8H28.7a1.22,1.22,0,0,0-1.21,1h0l-1.29,8.16-.36,2.31a.64.64,0,0,0,.63.74h4.46a1.07,1.07,0,0,0,1.06-.9l0-.23.84-5.32.05-.29A1.07,1.07,0,0,1,34,50.89h.67c4.32,0,7.7-1.75,8.68-6.82.41-2.12.2-3.89-.89-5.13A4.26,4.26,0,0,0,41.23,38Z" style="fill:#179bd7"/><path d="M40,37.53l-.53-.14-.57-.11a14,14,0,0,0-2.21-.16H30A1.07,1.07,0,0,0,29,38l-1.43,9,0,.26a1.22,1.22,0,0,1,1.21-1h2.51c4.93,0,8.8-2,9.93-7.8,0-.17.06-.34.09-.5a6,6,0,0,0-.93-.39Z" style="fill:#222d65"/><path d="M29,38a1.07,1.07,0,0,1,1.06-.9h6.71a14,14,0,0,1,2.21.16l.57.11.53.14.25.08a6.11,6.11,0,0,1,.93.39,5.48,5.48,0,0,0-1.16-4.92C38.79,31.62,36.49,31,33.54,31H25a1.22,1.22,0,0,0-1.21,1L20.2,54.64a.74.74,0,0,0,.73.85h5.29l1.33-8.42Z" style="fill:#253b80"/><rect x="0.5" y="0.5" width="150" height="94" rx="3" ry="3" style="fill:none;stroke:#e0e0e0;stroke-miterlimit:10"/></g></g></svg>