<svg xmlns="http://www.w3.org/2000/svg" xmlns:xlink="http://www.w3.org/1999/xlink" width="151" height="95" viewBox="0 0 151 95"><defs><linearGradient id="linear-gradient" x1="75.5" y1="0.5" x2="75.5" y2="94.5" gradientUnits="userSpaceOnUse"><stop offset="0.6" stop-color="#fff"/><stop offset="1" stop-color="#e8e9e9"/></linearGradient><clipPath id="clip-path"><path d="M50.09,29.86,41.75,50.94,38.38,33a3.73,3.73,0,0,0-3.69-3.16H21.05l-.19.9a33.5,33.5,0,0,1,7.9,2.64,3.39,3.39,0,0,1,1.9,2.72l6.39,24.71h8.47l13-31Zm11.85,0-6.63,31h8l6.62-31Zm45.93,8.37,2.43,11.63h-6.64Zm-1.17-8.37a3.64,3.64,0,0,0-3.41,2.27l-12,28.69h8.41l1.67-4.63h10.28l1,4.63H120l-6.47-31ZM72.13,39.53c-.05,4.46,4,6.95,7,8.43s4.17,2.49,4.15,3.85c0,2.08-2.49,3-4.8,3a16.76,16.76,0,0,1-8.23-2l-1.45,6.79a24.28,24.28,0,0,0,8.91,1.65c8.42,0,13.92-4.16,13.95-10.6,0-8.17-11.3-8.62-11.22-12.27,0-1.11,1.08-2.29,3.4-2.59a15.13,15.13,0,0,1,7.9,1.39l1.41-6.57a21.53,21.53,0,0,0-7.49-1.37c-7.92,0-13.49,4.21-13.53,10.24" style="fill:none"/></clipPath><linearGradient id="linear-gradient-2" x1="-58.92" y1="571.25" x2="-58.14" y2="571.25" gradientTransform="matrix(126.55, 0, 0, -126.55, 7477.43, 72334.15)" gradientUnits="userSpaceOnUse"><stop offset="0" stop-color="#241f5d"/><stop offset="1" stop-color="#034ea1"/></linearGradient></defs><title>cc-visa</title><g id="Layer_2" data-name="Layer 2"><g id="Visa"><rect x="0.5" y="0.5" width="150" height="94" rx="3" ry="3" style="stroke:#e0e0e0;stroke-miterlimit:10;fill:url(#linear-gradient)"/><g style="clip-path:url(#clip-path)"><rect id="_Path_" data-name="&lt;Path&gt;" x="20.87" y="29.29" width="99.13" height="32.02" style="fill:url(#linear-gradient-2)"/></g></g></g></svg>