<svg version="1.1" id="ffp-logo--2021" xmlns="http://www.w3.org/2000/svg" xmlns:xlink="http://www.w3.org/1999/xlink" x="0px" y="0px" viewBox="0 0 374.9 73.3" style="enable-background:new 0 0 374.9 73.3;" xml:space="preserve" width="374.9"  height="73.3" >
<g id="Layer_2_1_">
</g>
<g id="Layer_1_1_">
	<g>
		<g>
			<path class="st0" d="M0,14.5h39.7V28H15v10.3h22.2v12.9H15v21.6H0V14.5z" fill="#0061AC" stroke-width="3px"></path>
			<path class="st0" d="M45.2,14.5h39.6V28H60.1v10.3h22.2v12.9H60.1v21.6h-15V14.5H45.2z" fill="#0061AC" stroke-width="3px"></path>
			<path class="st0" d="M139.6,14.5h20.8c13.8,0,22.8,7.2,22.8,20.3v0.3c0,14-10.2,20.7-22.9,20.8h-5.8v16.9h-14.9V14.5z
				 M159.8,43.6c5.3,0,8.4-3.1,8.4-8v-0.2c0-5.3-3.1-8.1-8.5-8.1h-5.2v16.3L159.8,43.6L159.8,43.6z" fill="#0061AC" stroke-width="3px"></path>
		</g>
		<path class="st0" d="M134.2,14.5V28h-14.4v44.8h-15V28H90.4V14.5h14.4V0h15v14.5H134.2z M127.7,20.2h-14.4V6.4h-2v13.8H96.8v2
			h14.4v44.1h2V22.2h14.4v-2H127.7z" fill="#0061AC" stroke-width="3px"></path>
	</g>
	<path class="st0" d="M192.6,14.5h18.6v4.9H198v5.2h11.6v4.9H198v9.4h-5.4V14.5z" fill="#0061AC" stroke-width="3px"></path>
	<path class="st0" d="M212.7,26.7L212.7,26.7c0-7,5.5-12.7,13-12.7s12.9,5.6,12.9,12.5v0.1c0,6.9-5.5,12.6-13,12.6
		C218.1,39.3,212.7,33.7,212.7,26.7z M233.1,26.7L233.1,26.7c0-4.3-3.1-7.7-7.4-7.7s-7.3,3.4-7.3,7.6v0.1c0,4.2,3.1,7.7,7.4,7.7
		S233.1,30.9,233.1,26.7z" fill="#0061AC" stroke-width="3px"></path>
	<path class="st0" d="M241.1,26.7L241.1,26.7c0-7,5.5-12.7,13-12.7c7.5,0,12.9,5.6,12.9,12.5v0.1c0,6.9-5.5,12.6-13,12.6
		C246.5,39.3,241.1,33.7,241.1,26.7z M261.5,26.7L261.5,26.7c0-4.3-3.1-7.7-7.4-7.7c-4.3,0-7.3,3.4-7.3,7.6v0.1
		c0,4.2,3.1,7.7,7.4,7.7C258.5,34.3,261.5,30.9,261.5,26.7z" fill="#0061AC" stroke-width="3px"></path>
	<path class="st0" d="M270.2,14.5h9.5c7.7,0,13,5.3,13,12.1v0.1c0,6.9-5.3,12.2-13,12.2h-9.5V14.5z M275.6,19.3V34h4.1
		c4.4,0,7.4-3,7.4-7.3v-0.1c0-4.3-3-7.4-7.4-7.4L275.6,19.3L275.6,19.3z" fill="#0061AC" stroke-width="3px"></path>
	<path class="st0" d="M304.5,14.5h18.6v4.9h-13.2v5.2h11.6v4.9h-11.6v9.4h-5.4L304.5,14.5L304.5,14.5z" fill="#0061AC" stroke-width="3px"></path>
	<path class="st0" d="M324.7,26.7L324.7,26.7c0-7,5.5-12.7,13-12.7s12.9,5.6,12.9,12.5v0.1c0,6.9-5.5,12.6-13,12.6
		C330.1,39.3,324.7,33.7,324.7,26.7z M345,26.7L345,26.7c0-4.3-3.1-7.7-7.4-7.7c-4.3,0-7.3,3.4-7.3,7.6v0.1c0,4.2,3.1,7.7,7.4,7.7
		S345,30.9,345,26.7z" fill="#0061AC" stroke-width="3px"></path>
	<g>
		<g>
			<path class="st0" d="M353.7,14.5h11.2c3.1,0,5.5,0.9,7.1,2.5c1.4,1.4,2.1,3.3,2.1,5.6v0.1c0,3.9-2.1,6.4-5.2,7.6l6,8.7h-6.3
				l-5.2-7.8h-4.2V39h-5.4L353.7,14.5L353.7,14.5z M364.5,26.3c2.6,0,4.1-1.4,4.1-3.5v-0.1c0-2.3-1.6-3.5-4.2-3.5h-5.3v7h5.4V26.3z" fill="#0061AC" stroke-width="3px"></path>
		</g>
	</g>
	<path class="st0" d="M200,53.4h-7.4v-4.9h20.2v4.9h-7.4v19.4H200V53.4z" fill="#0061AC" stroke-width="3px"></path>
	<path class="st0" d="M216,48.5h5.4v9.7h9.9v-9.7h5.4v24.4h-5.4v-9.8h-9.9v9.8H216V48.5z" fill="#0061AC" stroke-width="3px"></path>
	<path class="st0" d="M241.1,48.5h18.4v4.8h-13.1v4.9h11.5V63h-11.5v5.1h13.2v4.8H241V48.5H241.1z" fill="#0061AC" stroke-width="3px"></path>
	<path class="st0" d="M274.1,48.5h10c5.8,0,9.3,3.4,9.3,8.4V57c0,5.6-4.4,8.6-9.9,8.6h-4.1v7.3H274L274.1,48.5L274.1,48.5z
		 M283.7,60.8c2.7,0,4.3-1.6,4.3-3.7V57c0-2.4-1.7-3.7-4.4-3.7h-4.1v7.5L283.7,60.8L283.7,60.8z" fill="#0061AC" stroke-width="3px"></path>
	<path class="st0" d="M295.8,60.8L295.8,60.8c0-7,5.5-12.7,13-12.7s12.9,5.6,12.9,12.5v0.1c0,6.9-5.5,12.6-13,12.6
		S295.8,67.7,295.8,60.8z M316.1,60.8L316.1,60.8c0-4.3-3.1-7.7-7.4-7.7c-4.3,0-7.3,3.4-7.3,7.6v0.1c0,4.2,3.1,7.7,7.4,7.7
		S316.1,64.9,316.1,60.8z" fill="#0061AC" stroke-width="3px"></path>
	<path class="st0" d="M324.2,60.8L324.2,60.8c0-7,5.5-12.7,13-12.7s12.9,5.6,12.9,12.5v0.1c0,6.9-5.5,12.6-13,12.6
		C329.6,73.3,324.2,67.7,324.2,60.8z M344.5,60.8L344.5,60.8c0-4.3-3.1-7.7-7.4-7.7c-4.3,0-7.3,3.4-7.3,7.6v0.1
		c0,4.2,3.1,7.7,7.4,7.7S344.5,64.9,344.5,60.8z" fill="#0061AC" stroke-width="3px"></path>
	<g>
		<g>
			<path class="st0" d="M353.7,48.5h11.2c3.1,0,5.5,0.9,7.1,2.5c1.4,1.4,2.1,3.3,2.1,5.6v0.1c0,3.9-2.1,6.4-5.2,7.6l6,8.7h-6.3
				l-5.2-7.8h-4.2V73h-5.4L353.7,48.5L353.7,48.5z M364.5,60.3c2.6,0,4.1-1.4,4.1-3.5v-0.1c0-2.3-1.6-3.5-4.2-3.5h-5.3v7h5.4V60.3z" fill="#0061AC" stroke-width="3px"></path>
		</g>
	</g>
</g>
</svg>